<svg width="24" height="24" viewBox="0 0 24 24" fill="none" xmlns="http://www.w3.org/2000/svg">
<path d="M13.2071 8C12.832 7.62506 12.3234 7.41443 11.7931 7.41443C11.2628 7.41443 10.7541 7.62506 10.3791 8L4.79309 13.586C4.51347 13.8657 4.32306 14.222 4.24593 14.6099C4.16879 14.9978 4.2084 15.3999 4.35974 15.7653C4.51108 16.1307 4.76736 16.443 5.09618 16.6628C5.425 16.8826 5.81159 16.9999 6.20709 17H17.3791C17.7746 16.9999 18.1612 16.8826 18.49 16.6628C18.8188 16.443 19.0751 16.1307 19.2264 15.7653C19.3778 15.3999 19.4174 14.9978 19.3403 14.6099C19.2631 14.222 19.0727 13.8657 18.7931 13.586L13.2071 8Z" fill="#2F2F38"/>
</svg>
